<svg width="128" height="23" viewBox="0 0 128 23" fill="none" xmlns="http://www.w3.org/2000/svg">
<path d="M0.750488 20.8955H3.56836L3.58252 1.43945H0.736328V0.334961H18.479V6.57959H17.3745C17.2707 4.80485 16.9827 3.58236 16.5107 2.91211C15.8877 2.0153 14.7218 1.52441 13.0132 1.43945H7.3916V10.7427H10.4502C11.2432 10.7427 11.8757 10.6105 12.3477 10.3462C12.8291 10.0819 13.117 9.62874 13.2114 8.98682C13.2303 8.79801 13.2445 8.58561 13.2539 8.34961C13.2728 8.10417 13.2917 7.8776 13.3105 7.66992H14.4717V15.0757H13.3105C13.2917 14.8586 13.2728 14.6084 13.2539 14.3252C13.2445 14.0326 13.2303 13.7918 13.2114 13.603C13.0415 12.4325 12.1211 11.8472 10.4502 11.8472H7.3916V20.8955H11.9795V22H0.750488V20.8955ZM19.6685 20.8955H21.1978L29.1841 0.334961H30.8267L39.3652 20.8955H40.8096V22H33.0923V20.8955H35.2163L33.1772 15.9536H24.582L22.7129 20.8955H25.2617V22H19.6685V20.8955ZM32.7241 14.8491L28.7026 5.06445L25.0068 14.8491H32.7241ZM42.0981 20.8813L45.1284 20.8955L45.1426 1.42529H42.7637V0.334961H51.4722V1.42529H48.9517V20.8955H53.2847C55.7674 20.8955 57.2731 19.7485 57.8018 17.4546C57.9528 16.7938 58.0519 16.1141 58.0991 15.4155H59.2036V22H42.0981V20.8813ZM78.9712 1.86426C79.3488 1.42057 79.547 0.910807 79.5659 0.334961H80.7271V6.26807H79.5234C79.2497 4.70101 78.4992 3.46908 77.272 2.57227C76.0542 1.67546 74.7279 1.22705 73.293 1.22705C68.5163 1.22705 66.1468 4.56413 66.1846 11.2383C66.2129 13.891 66.7415 16.0952 67.7705 17.8511C68.96 19.8807 70.6875 20.8955 72.9531 20.8955C74.6807 20.8955 76.1392 20.5934 77.3286 19.9893C78.5275 19.3757 79.4668 18.5496 80.1465 17.5112L80.8828 18.1909C80.5241 19.05 79.7783 19.8713 78.6455 20.6548C77.0879 21.7404 75.1338 22.2832 72.7832 22.2832C69.4414 22.2832 66.7793 21.2448 64.7969 19.168C62.8145 17.0817 61.8232 14.429 61.8232 11.21C61.8232 7.99089 62.8097 5.32878 64.7827 3.22363C66.7651 1.10905 69.5169 0.0517578 73.0381 0.0517578C74.945 0.0517578 76.6064 0.438802 78.0225 1.21289C78.4189 1.43001 78.7352 1.64714 78.9712 1.86426ZM82.9644 20.8955H85.1733L85.1875 1.43945H82.9644V0.334961H91.3896V1.43945H88.9966V10.5869H99.5317L99.5459 1.43945H97.1528V0.334961H105.578V1.43945H103.355V20.8955H105.564V22H97.1528V20.8955H99.5317V11.6914H88.9966V20.8955H91.3755V22H82.9644V20.8955ZM112.715 20.8955H115.519L115.533 13.6455L108.283 1.43945H106.513V0.334961H115.632V1.43945H112.757L118.549 11.6206L124.298 1.43945H121.692V0.334961H127.951V1.43945H125.813L119.342 12.7676V20.8955H122.16V22H112.715V20.8955Z" fill="white"/>
</svg>
