<svg width="30" height="30" viewBox="0 0 30 30" fill="none" xmlns="http://www.w3.org/2000/svg">
<path d="M3.75 5C3.75 5.69036 4.30964 6.25 5 6.25C5.69036 6.25 6.25 5.69036 6.25 5C6.25 4.30964 5.69036 3.75 5 3.75C4.30964 3.75 3.75 4.30964 3.75 5Z" stroke="white" stroke-width="2.5"/>
<path d="M13.75 5C13.75 5.69036 14.3096 6.25 15 6.25C15.6904 6.25 16.25 5.69036 16.25 5C16.25 4.30964 15.6904 3.75 15 3.75C14.3096 3.75 13.75 4.30964 13.75 5Z" stroke="white" stroke-width="2.5"/>
<path d="M23.75 5C23.75 5.69036 24.3096 6.25 25 6.25C25.6904 6.25 26.25 5.69036 26.25 5C26.25 4.30964 25.6904 3.75 25 3.75C24.3096 3.75 23.75 4.30964 23.75 5Z" stroke="white" stroke-width="2.5"/>
<path d="M3.75 15C3.75 15.6904 4.30964 16.25 5 16.25C5.69036 16.25 6.25 15.6904 6.25 15C6.25 14.3096 5.69036 13.75 5 13.75C4.30964 13.75 3.75 14.3096 3.75 15Z" stroke="white" stroke-width="2.5"/>
<path d="M13.75 15C13.75 15.6904 14.3096 16.25 15 16.25C15.6904 16.25 16.25 15.6904 16.25 15C16.25 14.3096 15.6904 13.75 15 13.75C14.3096 13.75 13.75 14.3096 13.75 15Z" stroke="white" stroke-width="2.5"/>
<path d="M23.75 15C23.75 15.6904 24.3096 16.25 25 16.25C25.6904 16.25 26.25 15.6904 26.25 15C26.25 14.3096 25.6904 13.75 25 13.75C24.3096 13.75 23.75 14.3096 23.75 15Z" stroke="white" stroke-width="2.5"/>
<path d="M3.75 25C3.75 25.6904 4.30964 26.25 5 26.25C5.69036 26.25 6.25 25.6904 6.25 25C6.25 24.3096 5.69036 23.75 5 23.75C4.30964 23.75 3.75 24.3096 3.75 25Z" stroke="white" stroke-width="2.5"/>
<path d="M13.75 25C13.75 25.6904 14.3096 26.25 15 26.25C15.6904 26.25 16.25 25.6904 16.25 25C16.25 24.3096 15.6904 23.75 15 23.75C14.3096 23.75 13.75 24.3096 13.75 25Z" stroke="white" stroke-width="2.5"/>
<path d="M23.75 25C23.75 25.6904 24.3096 26.25 25 26.25C25.6904 26.25 26.25 25.6904 26.25 25C26.25 24.3096 25.6904 23.75 25 23.75C24.3096 23.75 23.75 24.3096 23.75 25Z" stroke="white" stroke-width="2.5"/>
</svg>
